<svg xmlns="http://www.w3.org/2000/svg" version="1.1" xmlns:xlink="http://www.w3.org/1999/xlink" xmlns:svgjs="http://svgjs.dev/svgjs" viewBox="0 0 800 800" width="800" height="800"><g stroke-width="1.25" stroke="hsla(0, 0%, 69%, 1.00)" fill="none"><line x1="0" y1="0" x2="44.44444444444444" y2="44.44444444444444"></line><line x1="44.44444444444444" y1="0" x2="88.88888888888889" y2="44.44444444444444"></line><line x1="88.88888888888889" y1="0" x2="133.33333333333331" y2="44.44444444444444"></line><line x1="133.33333333333331" y1="0" x2="177.77777777777777" y2="44.44444444444444"></line><line x1="177.77777777777777" y1="0" x2="222.22222222222223" y2="44.44444444444444"></line><line x1="222.22222222222223" y1="0" x2="266.6666666666667" y2="44.44444444444444"></line><line x1="266.6666666666667" y1="0" x2="311.11111111111114" y2="44.44444444444444"></line><line x1="311.11111111111114" y1="0" x2="355.5555555555556" y2="44.44444444444444"></line><line x1="355.5555555555556" y1="0" x2="400.00000000000006" y2="44.44444444444444"></line><line x1="400.00000000000006" y1="0" x2="444.4444444444445" y2="44.44444444444444"></line><line x1="444.4444444444445" y1="0" x2="488.88888888888897" y2="44.44444444444444"></line><line x1="488.88888888888897" y1="0" x2="533.3333333333334" y2="44.44444444444444"></line><line x1="533.3333333333334" y1="0" x2="577.7777777777778" y2="44.44444444444444"></line><line x1="577.7777777777778" y1="0" x2="622.2222222222223" y2="44.44444444444444"></line><line x1="622.2222222222223" y1="0" x2="666.6666666666667" y2="44.44444444444444"></line><line x1="666.6666666666667" y1="0" x2="711.1111111111112" y2="44.44444444444444"></line><line x1="711.1111111111112" y1="0" x2="755.5555555555557" y2="44.44444444444444"></line><line x1="755.5555555555557" y1="0" x2="800.0000000000001" y2="44.44444444444444"></line><line x1="800.0000000000001" y1="0" x2="844.4444444444446" y2="44.44444444444444"></line><line x1="0" y1="72.72727272727273" x2="44.44444444444444" y2="117.17171717171718"></line><line x1="44.44444444444444" y1="72.72727272727273" x2="88.88888888888889" y2="117.17171717171718"></line><line x1="88.88888888888889" y1="72.72727272727273" x2="133.33333333333331" y2="117.17171717171718"></line><line x1="133.33333333333331" y1="72.72727272727273" x2="177.77777777777777" y2="117.17171717171718"></line><line x1="177.77777777777777" y1="72.72727272727273" x2="222.22222222222223" y2="117.17171717171718"></line><line x1="222.22222222222223" y1="72.72727272727273" x2="266.6666666666667" y2="117.17171717171718"></line><line x1="266.6666666666667" y1="72.72727272727273" x2="311.11111111111114" y2="117.17171717171718"></line><line x1="311.11111111111114" y1="72.72727272727273" x2="355.5555555555556" y2="117.17171717171718"></line><line x1="355.5555555555556" y1="72.72727272727273" x2="400.00000000000006" y2="117.17171717171718"></line><line x1="400.00000000000006" y1="72.72727272727273" x2="444.4444444444445" y2="117.17171717171718"></line><line x1="444.4444444444445" y1="72.72727272727273" x2="488.88888888888897" y2="117.17171717171718"></line><line x1="488.88888888888897" y1="72.72727272727273" x2="533.3333333333334" y2="117.17171717171718"></line><line x1="533.3333333333334" y1="72.72727272727273" x2="577.7777777777778" y2="117.17171717171718"></line><line x1="577.7777777777778" y1="72.72727272727273" x2="622.2222222222223" y2="117.17171717171718"></line><line x1="622.2222222222223" y1="72.72727272727273" x2="666.6666666666667" y2="117.17171717171718"></line><line x1="666.6666666666667" y1="72.72727272727273" x2="711.1111111111112" y2="117.17171717171718"></line><line x1="711.1111111111112" y1="72.72727272727273" x2="755.5555555555557" y2="117.17171717171718"></line><line x1="755.5555555555557" y1="72.72727272727273" x2="800.0000000000001" y2="117.17171717171718"></line><line x1="800.0000000000001" y1="72.72727272727273" x2="844.4444444444446" y2="117.17171717171718"></line><line x1="0" y1="145.45454545454547" x2="44.44444444444444" y2="189.8989898989899"></line><line x1="44.44444444444444" y1="145.45454545454547" x2="88.88888888888889" y2="189.8989898989899"></line><line x1="88.88888888888889" y1="145.45454545454547" x2="133.33333333333331" y2="189.8989898989899"></line><line x1="133.33333333333331" y1="145.45454545454547" x2="177.77777777777777" y2="189.8989898989899"></line><line x1="177.77777777777777" y1="145.45454545454547" x2="222.22222222222223" y2="189.8989898989899"></line><line x1="222.22222222222223" y1="145.45454545454547" x2="266.6666666666667" y2="189.8989898989899"></line><line x1="266.6666666666667" y1="145.45454545454547" x2="311.11111111111114" y2="189.8989898989899"></line><line x1="311.11111111111114" y1="145.45454545454547" x2="355.5555555555556" y2="189.8989898989899"></line><line x1="355.5555555555556" y1="145.45454545454547" x2="400.00000000000006" y2="189.8989898989899"></line><line x1="400.00000000000006" y1="145.45454545454547" x2="444.4444444444445" y2="189.8989898989899"></line><line x1="444.4444444444445" y1="145.45454545454547" x2="488.88888888888897" y2="189.8989898989899"></line><line x1="488.88888888888897" y1="145.45454545454547" x2="533.3333333333334" y2="189.8989898989899"></line><line x1="533.3333333333334" y1="145.45454545454547" x2="577.7777777777778" y2="189.8989898989899"></line><line x1="577.7777777777778" y1="145.45454545454547" x2="622.2222222222223" y2="189.8989898989899"></line><line x1="622.2222222222223" y1="145.45454545454547" x2="666.6666666666667" y2="189.8989898989899"></line><line x1="666.6666666666667" y1="145.45454545454547" x2="711.1111111111112" y2="189.8989898989899"></line><line x1="711.1111111111112" y1="145.45454545454547" x2="755.5555555555557" y2="189.8989898989899"></line><line x1="755.5555555555557" y1="145.45454545454547" x2="800.0000000000001" y2="189.8989898989899"></line><line x1="800.0000000000001" y1="145.45454545454547" x2="844.4444444444446" y2="189.8989898989899"></line><line x1="0" y1="218.1818181818182" x2="44.44444444444444" y2="262.62626262626264"></line><line x1="44.44444444444444" y1="218.1818181818182" x2="88.88888888888889" y2="262.62626262626264"></line><line x1="88.88888888888889" y1="218.1818181818182" x2="133.33333333333331" y2="262.62626262626264"></line><line x1="133.33333333333331" y1="218.1818181818182" x2="177.77777777777777" y2="262.62626262626264"></line><line x1="177.77777777777777" y1="218.1818181818182" x2="222.22222222222223" y2="262.62626262626264"></line><line x1="222.22222222222223" y1="218.1818181818182" x2="266.6666666666667" y2="262.62626262626264"></line><line x1="266.6666666666667" y1="218.1818181818182" x2="311.11111111111114" y2="262.62626262626264"></line><line x1="311.11111111111114" y1="218.1818181818182" x2="355.5555555555556" y2="262.62626262626264"></line><line x1="355.5555555555556" y1="218.1818181818182" x2="400.00000000000006" y2="262.62626262626264"></line><line x1="400.00000000000006" y1="218.1818181818182" x2="444.4444444444445" y2="262.62626262626264"></line><line x1="444.4444444444445" y1="218.1818181818182" x2="488.88888888888897" y2="262.62626262626264"></line><line x1="488.88888888888897" y1="218.1818181818182" x2="533.3333333333334" y2="262.62626262626264"></line><line x1="533.3333333333334" y1="218.1818181818182" x2="577.7777777777778" y2="262.62626262626264"></line><line x1="577.7777777777778" y1="218.1818181818182" x2="622.2222222222223" y2="262.62626262626264"></line><line x1="622.2222222222223" y1="218.1818181818182" x2="666.6666666666667" y2="262.62626262626264"></line><line x1="666.6666666666667" y1="218.1818181818182" x2="711.1111111111112" y2="262.62626262626264"></line><line x1="711.1111111111112" y1="218.1818181818182" x2="755.5555555555557" y2="262.62626262626264"></line><line x1="755.5555555555557" y1="218.1818181818182" x2="800.0000000000001" y2="262.62626262626264"></line><line x1="800.0000000000001" y1="218.1818181818182" x2="844.4444444444446" y2="262.62626262626264"></line><line x1="0" y1="290.90909090909093" x2="44.44444444444444" y2="335.3535353535354"></line><line x1="44.44444444444444" y1="290.90909090909093" x2="88.88888888888889" y2="335.3535353535354"></line><line x1="88.88888888888889" y1="290.90909090909093" x2="133.33333333333331" y2="335.3535353535354"></line><line x1="133.33333333333331" y1="290.90909090909093" x2="177.77777777777777" y2="335.3535353535354"></line><line x1="177.77777777777777" y1="290.90909090909093" x2="222.22222222222223" y2="335.3535353535354"></line><line x1="222.22222222222223" y1="290.90909090909093" x2="266.6666666666667" y2="335.3535353535354"></line><line x1="266.6666666666667" y1="290.90909090909093" x2="311.11111111111114" y2="335.3535353535354"></line><line x1="311.11111111111114" y1="290.90909090909093" x2="355.5555555555556" y2="335.3535353535354"></line><line x1="355.5555555555556" y1="290.90909090909093" x2="400.00000000000006" y2="335.3535353535354"></line><line x1="400.00000000000006" y1="290.90909090909093" x2="444.4444444444445" y2="335.3535353535354"></line><line x1="444.4444444444445" y1="290.90909090909093" x2="488.88888888888897" y2="335.3535353535354"></line><line x1="488.88888888888897" y1="290.90909090909093" x2="533.3333333333334" y2="335.3535353535354"></line><line x1="533.3333333333334" y1="290.90909090909093" x2="577.7777777777778" y2="335.3535353535354"></line><line x1="577.7777777777778" y1="290.90909090909093" x2="622.2222222222223" y2="335.3535353535354"></line><line x1="622.2222222222223" y1="290.90909090909093" x2="666.6666666666667" y2="335.3535353535354"></line><line x1="666.6666666666667" y1="290.90909090909093" x2="711.1111111111112" y2="335.3535353535354"></line><line x1="711.1111111111112" y1="290.90909090909093" x2="755.5555555555557" y2="335.3535353535354"></line><line x1="755.5555555555557" y1="290.90909090909093" x2="800.0000000000001" y2="335.3535353535354"></line><line x1="800.0000000000001" y1="290.90909090909093" x2="844.4444444444446" y2="335.3535353535354"></line><line x1="0" y1="363.6363636363637" x2="44.44444444444444" y2="408.08080808080814"></line><line x1="44.44444444444444" y1="363.6363636363637" x2="88.88888888888889" y2="408.08080808080814"></line><line x1="88.88888888888889" y1="363.6363636363637" x2="133.33333333333331" y2="408.08080808080814"></line><line x1="133.33333333333331" y1="363.6363636363637" x2="177.77777777777777" y2="408.08080808080814"></line><line x1="177.77777777777777" y1="363.6363636363637" x2="222.22222222222223" y2="408.08080808080814"></line><line x1="222.22222222222223" y1="363.6363636363637" x2="266.6666666666667" y2="408.08080808080814"></line><line x1="266.6666666666667" y1="363.6363636363637" x2="311.11111111111114" y2="408.08080808080814"></line><line x1="311.11111111111114" y1="363.6363636363637" x2="355.5555555555556" y2="408.08080808080814"></line><line x1="355.5555555555556" y1="363.6363636363637" x2="400.00000000000006" y2="408.08080808080814"></line><line x1="400.00000000000006" y1="363.6363636363637" x2="444.4444444444445" y2="408.08080808080814"></line><line x1="444.4444444444445" y1="363.6363636363637" x2="488.88888888888897" y2="408.08080808080814"></line><line x1="488.88888888888897" y1="363.6363636363637" x2="533.3333333333334" y2="408.08080808080814"></line><line x1="533.3333333333334" y1="363.6363636363637" x2="577.7777777777778" y2="408.08080808080814"></line><line x1="577.7777777777778" y1="363.6363636363637" x2="622.2222222222223" y2="408.08080808080814"></line><line x1="622.2222222222223" y1="363.6363636363637" x2="666.6666666666667" y2="408.08080808080814"></line><line x1="666.6666666666667" y1="363.6363636363637" x2="711.1111111111112" y2="408.08080808080814"></line><line x1="711.1111111111112" y1="363.6363636363637" x2="755.5555555555557" y2="408.08080808080814"></line><line x1="755.5555555555557" y1="363.6363636363637" x2="800.0000000000001" y2="408.08080808080814"></line><line x1="800.0000000000001" y1="363.6363636363637" x2="844.4444444444446" y2="408.08080808080814"></line><line x1="0" y1="436.36363636363643" x2="44.44444444444444" y2="480.8080808080809"></line><line x1="44.44444444444444" y1="436.36363636363643" x2="88.88888888888889" y2="480.8080808080809"></line><line x1="88.88888888888889" y1="436.36363636363643" x2="133.33333333333331" y2="480.8080808080809"></line><line x1="133.33333333333331" y1="436.36363636363643" x2="177.77777777777777" y2="480.8080808080809"></line><line x1="177.77777777777777" y1="436.36363636363643" x2="222.22222222222223" y2="480.8080808080809"></line><line x1="222.22222222222223" y1="436.36363636363643" x2="266.6666666666667" y2="480.8080808080809"></line><line x1="266.6666666666667" y1="436.36363636363643" x2="311.11111111111114" y2="480.8080808080809"></line><line x1="311.11111111111114" y1="436.36363636363643" x2="355.5555555555556" y2="480.8080808080809"></line><line x1="355.5555555555556" y1="436.36363636363643" x2="400.00000000000006" y2="480.8080808080809"></line><line x1="400.00000000000006" y1="436.36363636363643" x2="444.4444444444445" y2="480.8080808080809"></line><line x1="444.4444444444445" y1="436.36363636363643" x2="488.88888888888897" y2="480.8080808080809"></line><line x1="488.88888888888897" y1="436.36363636363643" x2="533.3333333333334" y2="480.8080808080809"></line><line x1="533.3333333333334" y1="436.36363636363643" x2="577.7777777777778" y2="480.8080808080809"></line><line x1="577.7777777777778" y1="436.36363636363643" x2="622.2222222222223" y2="480.8080808080809"></line><line x1="622.2222222222223" y1="436.36363636363643" x2="666.6666666666667" y2="480.8080808080809"></line><line x1="666.6666666666667" y1="436.36363636363643" x2="711.1111111111112" y2="480.8080808080809"></line><line x1="711.1111111111112" y1="436.36363636363643" x2="755.5555555555557" y2="480.8080808080809"></line><line x1="755.5555555555557" y1="436.36363636363643" x2="800.0000000000001" y2="480.8080808080809"></line><line x1="800.0000000000001" y1="436.36363636363643" x2="844.4444444444446" y2="480.8080808080809"></line><line x1="0" y1="509.0909090909092" x2="44.44444444444444" y2="553.5353535353536"></line><line x1="44.44444444444444" y1="509.0909090909092" x2="88.88888888888889" y2="553.5353535353536"></line><line x1="88.88888888888889" y1="509.0909090909092" x2="133.33333333333331" y2="553.5353535353536"></line><line x1="133.33333333333331" y1="509.0909090909092" x2="177.77777777777777" y2="553.5353535353536"></line><line x1="177.77777777777777" y1="509.0909090909092" x2="222.22222222222223" y2="553.5353535353536"></line><line x1="222.22222222222223" y1="509.0909090909092" x2="266.6666666666667" y2="553.5353535353536"></line><line x1="266.6666666666667" y1="509.0909090909092" x2="311.11111111111114" y2="553.5353535353536"></line><line x1="311.11111111111114" y1="509.0909090909092" x2="355.5555555555556" y2="553.5353535353536"></line><line x1="355.5555555555556" y1="509.0909090909092" x2="400.00000000000006" y2="553.5353535353536"></line><line x1="400.00000000000006" y1="509.0909090909092" x2="444.4444444444445" y2="553.5353535353536"></line><line x1="444.4444444444445" y1="509.0909090909092" x2="488.88888888888897" y2="553.5353535353536"></line><line x1="488.88888888888897" y1="509.0909090909092" x2="533.3333333333334" y2="553.5353535353536"></line><line x1="533.3333333333334" y1="509.0909090909092" x2="577.7777777777778" y2="553.5353535353536"></line><line x1="577.7777777777778" y1="509.0909090909092" x2="622.2222222222223" y2="553.5353535353536"></line><line x1="622.2222222222223" y1="509.0909090909092" x2="666.6666666666667" y2="553.5353535353536"></line><line x1="666.6666666666667" y1="509.0909090909092" x2="711.1111111111112" y2="553.5353535353536"></line><line x1="711.1111111111112" y1="509.0909090909092" x2="755.5555555555557" y2="553.5353535353536"></line><line x1="755.5555555555557" y1="509.0909090909092" x2="800.0000000000001" y2="553.5353535353536"></line><line x1="800.0000000000001" y1="509.0909090909092" x2="844.4444444444446" y2="553.5353535353536"></line><line x1="0" y1="581.8181818181819" x2="44.44444444444444" y2="626.2626262626263"></line><line x1="44.44444444444444" y1="581.8181818181819" x2="88.88888888888889" y2="626.2626262626263"></line><line x1="88.88888888888889" y1="581.8181818181819" x2="133.33333333333331" y2="626.2626262626263"></line><line x1="133.33333333333331" y1="581.8181818181819" x2="177.77777777777777" y2="626.2626262626263"></line><line x1="177.77777777777777" y1="581.8181818181819" x2="222.22222222222223" y2="626.2626262626263"></line><line x1="222.22222222222223" y1="581.8181818181819" x2="266.6666666666667" y2="626.2626262626263"></line><line x1="266.6666666666667" y1="581.8181818181819" x2="311.11111111111114" y2="626.2626262626263"></line><line x1="311.11111111111114" y1="581.8181818181819" x2="355.5555555555556" y2="626.2626262626263"></line><line x1="355.5555555555556" y1="581.8181818181819" x2="400.00000000000006" y2="626.2626262626263"></line><line x1="400.00000000000006" y1="581.8181818181819" x2="444.4444444444445" y2="626.2626262626263"></line><line x1="444.4444444444445" y1="581.8181818181819" x2="488.88888888888897" y2="626.2626262626263"></line><line x1="488.88888888888897" y1="581.8181818181819" x2="533.3333333333334" y2="626.2626262626263"></line><line x1="533.3333333333334" y1="581.8181818181819" x2="577.7777777777778" y2="626.2626262626263"></line><line x1="577.7777777777778" y1="581.8181818181819" x2="622.2222222222223" y2="626.2626262626263"></line><line x1="622.2222222222223" y1="581.8181818181819" x2="666.6666666666667" y2="626.2626262626263"></line><line x1="666.6666666666667" y1="581.8181818181819" x2="711.1111111111112" y2="626.2626262626263"></line><line x1="711.1111111111112" y1="581.8181818181819" x2="755.5555555555557" y2="626.2626262626263"></line><line x1="755.5555555555557" y1="581.8181818181819" x2="800.0000000000001" y2="626.2626262626263"></line><line x1="800.0000000000001" y1="581.8181818181819" x2="844.4444444444446" y2="626.2626262626263"></line><line x1="0" y1="654.5454545454546" x2="44.44444444444444" y2="698.9898989898991"></line><line x1="44.44444444444444" y1="654.5454545454546" x2="88.88888888888889" y2="698.9898989898991"></line><line x1="88.88888888888889" y1="654.5454545454546" x2="133.33333333333331" y2="698.9898989898991"></line><line x1="133.33333333333331" y1="654.5454545454546" x2="177.77777777777777" y2="698.9898989898991"></line><line x1="177.77777777777777" y1="654.5454545454546" x2="222.22222222222223" y2="698.9898989898991"></line><line x1="222.22222222222223" y1="654.5454545454546" x2="266.6666666666667" y2="698.9898989898991"></line><line x1="266.6666666666667" y1="654.5454545454546" x2="311.11111111111114" y2="698.9898989898991"></line><line x1="311.11111111111114" y1="654.5454545454546" x2="355.5555555555556" y2="698.9898989898991"></line><line x1="355.5555555555556" y1="654.5454545454546" x2="400.00000000000006" y2="698.9898989898991"></line><line x1="400.00000000000006" y1="654.5454545454546" x2="444.4444444444445" y2="698.9898989898991"></line><line x1="444.4444444444445" y1="654.5454545454546" x2="488.88888888888897" y2="698.9898989898991"></line><line x1="488.88888888888897" y1="654.5454545454546" x2="533.3333333333334" y2="698.9898989898991"></line><line x1="533.3333333333334" y1="654.5454545454546" x2="577.7777777777778" y2="698.9898989898991"></line><line x1="577.7777777777778" y1="654.5454545454546" x2="622.2222222222223" y2="698.9898989898991"></line><line x1="622.2222222222223" y1="654.5454545454546" x2="666.6666666666667" y2="698.9898989898991"></line><line x1="666.6666666666667" y1="654.5454545454546" x2="711.1111111111112" y2="698.9898989898991"></line><line x1="711.1111111111112" y1="654.5454545454546" x2="755.5555555555557" y2="698.9898989898991"></line><line x1="755.5555555555557" y1="654.5454545454546" x2="800.0000000000001" y2="698.9898989898991"></line><line x1="800.0000000000001" y1="654.5454545454546" x2="844.4444444444446" y2="698.9898989898991"></line><line x1="0" y1="727.2727272727274" x2="44.44444444444444" y2="771.7171717171718"></line><line x1="44.44444444444444" y1="727.2727272727274" x2="88.88888888888889" y2="771.7171717171718"></line><line x1="88.88888888888889" y1="727.2727272727274" x2="133.33333333333331" y2="771.7171717171718"></line><line x1="133.33333333333331" y1="727.2727272727274" x2="177.77777777777777" y2="771.7171717171718"></line><line x1="177.77777777777777" y1="727.2727272727274" x2="222.22222222222223" y2="771.7171717171718"></line><line x1="222.22222222222223" y1="727.2727272727274" x2="266.6666666666667" y2="771.7171717171718"></line><line x1="266.6666666666667" y1="727.2727272727274" x2="311.11111111111114" y2="771.7171717171718"></line><line x1="311.11111111111114" y1="727.2727272727274" x2="355.5555555555556" y2="771.7171717171718"></line><line x1="355.5555555555556" y1="727.2727272727274" x2="400.00000000000006" y2="771.7171717171718"></line><line x1="400.00000000000006" y1="727.2727272727274" x2="444.4444444444445" y2="771.7171717171718"></line><line x1="444.4444444444445" y1="727.2727272727274" x2="488.88888888888897" y2="771.7171717171718"></line><line x1="488.88888888888897" y1="727.2727272727274" x2="533.3333333333334" y2="771.7171717171718"></line><line x1="533.3333333333334" y1="727.2727272727274" x2="577.7777777777778" y2="771.7171717171718"></line><line x1="577.7777777777778" y1="727.2727272727274" x2="622.2222222222223" y2="771.7171717171718"></line><line x1="622.2222222222223" y1="727.2727272727274" x2="666.6666666666667" y2="771.7171717171718"></line><line x1="666.6666666666667" y1="727.2727272727274" x2="711.1111111111112" y2="771.7171717171718"></line><line x1="711.1111111111112" y1="727.2727272727274" x2="755.5555555555557" y2="771.7171717171718"></line><line x1="755.5555555555557" y1="727.2727272727274" x2="800.0000000000001" y2="771.7171717171718"></line><line x1="800.0000000000001" y1="727.2727272727274" x2="844.4444444444446" y2="771.7171717171718"></line><line x1="0" y1="800.0000000000001" x2="44.44444444444444" y2="844.4444444444446"></line><line x1="44.44444444444444" y1="800.0000000000001" x2="88.88888888888889" y2="844.4444444444446"></line><line x1="88.88888888888889" y1="800.0000000000001" x2="133.33333333333331" y2="844.4444444444446"></line><line x1="133.33333333333331" y1="800.0000000000001" x2="177.77777777777777" y2="844.4444444444446"></line><line x1="177.77777777777777" y1="800.0000000000001" x2="222.22222222222223" y2="844.4444444444446"></line><line x1="222.22222222222223" y1="800.0000000000001" x2="266.6666666666667" y2="844.4444444444446"></line><line x1="266.6666666666667" y1="800.0000000000001" x2="311.11111111111114" y2="844.4444444444446"></line><line x1="311.11111111111114" y1="800.0000000000001" x2="355.5555555555556" y2="844.4444444444446"></line><line x1="355.5555555555556" y1="800.0000000000001" x2="400.00000000000006" y2="844.4444444444446"></line><line x1="400.00000000000006" y1="800.0000000000001" x2="444.4444444444445" y2="844.4444444444446"></line><line x1="444.4444444444445" y1="800.0000000000001" x2="488.88888888888897" y2="844.4444444444446"></line><line x1="488.88888888888897" y1="800.0000000000001" x2="533.3333333333334" y2="844.4444444444446"></line><line x1="533.3333333333334" y1="800.0000000000001" x2="577.7777777777778" y2="844.4444444444446"></line><line x1="577.7777777777778" y1="800.0000000000001" x2="622.2222222222223" y2="844.4444444444446"></line><line x1="622.2222222222223" y1="800.0000000000001" x2="666.6666666666667" y2="844.4444444444446"></line><line x1="666.6666666666667" y1="800.0000000000001" x2="711.1111111111112" y2="844.4444444444446"></line><line x1="711.1111111111112" y1="800.0000000000001" x2="755.5555555555557" y2="844.4444444444446"></line><line x1="755.5555555555557" y1="800.0000000000001" x2="800.0000000000001" y2="844.4444444444446"></line><line x1="800.0000000000001" y1="800.0000000000001" x2="844.4444444444446" y2="844.4444444444446"></line></g></svg>