<?xml version="1.0" standalone="no"?>
<!DOCTYPE svg PUBLIC "-//W3C//DTD SVG 20010904//EN"
 "http://www.w3.org/TR/2001/REC-SVG-20010904/DTD/svg10.dtd">
<svg version="1.0" xmlns="http://www.w3.org/2000/svg"
 width="640.000000pt" height="640.000000pt" viewBox="0 0 640.000000 640.000000"
 preserveAspectRatio="xMidYMid meet">
<metadata>
Created by potrace 1.14, written by Peter Selinger 2001-2017
</metadata>
<g transform="translate(0.000000,640.000000) scale(0.100000,-0.100000)"
fill="#000000" stroke="none">
<path d="M3148 5535 c-2 -2 -33 -5 -68 -6 -95 -3 -170 -29 -310 -110 -69 -40
-138 -79 -155 -89 -16 -9 -112 -65 -213 -123 -100 -59 -187 -107 -192 -107 -6
0 -10 -4 -10 -10 0 -5 -5 -10 -11 -10 -6 0 -49 -23 -97 -51 -48 -29 -103 -61
-122 -72 -19 -10 -91 -52 -160 -92 -69 -40 -141 -82 -160 -92 -19 -11 -91 -53
-160 -93 -69 -40 -145 -84 -169 -98 -25 -14 -67 -38 -93 -53 -27 -16 -53 -29
-58 -29 -6 0 -10 -4 -10 -9 0 -5 -8 -11 -17 -15 -10 -3 -25 -10 -33 -15 -14
-10 -331 -191 -375 -216 -11 -6 -39 -23 -62 -38 -24 -15 -45 -27 -47 -27 -3 0
-71 -39 -153 -86 -81 -48 -173 -100 -203 -117 -30 -16 -62 -35 -70 -41 -8 -7
-32 -21 -54 -31 -61 -32 -121 -90 -135 -132 -9 -29 -11 -167 -9 -570 l3 -531
31 -44 c32 -44 124 -113 211 -158 26 -13 50 -27 53 -30 3 -3 14 -10 25 -16 11
-6 97 -55 190 -109 94 -54 241 -139 328 -189 87 -50 170 -99 185 -108 15 -9
43 -25 62 -35 19 -9 59 -32 88 -50 28 -19 60 -37 70 -40 9 -4 36 -19 59 -35
23 -15 44 -28 46 -28 4 0 387 -220 417 -240 8 -6 22 -13 30 -17 8 -4 31 -16
50 -28 19 -12 55 -33 80 -47 25 -14 138 -79 251 -145 114 -66 213 -123 220
-127 8 -4 23 -12 34 -19 11 -7 66 -39 123 -71 56 -32 105 -62 108 -67 3 -5 10
-7 15 -4 5 4 9 1 9 -4 0 -6 5 -11 10 -11 6 0 35 -16 65 -35 30 -19 55 -33 55
-30 0 2 21 -6 48 -19 83 -42 160 -58 272 -59 159 -2 205 10 355 94 128 72 165
94 231 133 49 28 122 70 159 91 18 9 102 59 145 85 81 49 193 110 200 110 6 0
10 4 10 9 0 5 9 12 19 16 11 3 98 51 193 107 95 55 196 114 223 130 28 16 58
32 68 35 9 3 17 9 17 14 0 5 4 9 9 9 5 0 86 45 181 100 94 55 176 100 181 100
5 0 9 5 9 10 0 6 4 10 10 10 5 0 33 14 62 31 29 18 69 41 88 52 28 16 261 150
395 227 143 83 228 130 236 130 5 0 9 3 9 8 0 4 21 18 48 32 26 13 71 39 100
57 29 18 54 33 57 33 2 0 20 11 39 24 50 34 82 75 95 123 7 26 12 221 14 564
2 454 0 527 -13 543 -62 78 -122 120 -410 284 -116 66 -217 123 -230 131 -8 5
-121 71 -250 146 -129 74 -246 142 -260 150 -157 92 -443 255 -449 255 -4 0
-13 6 -19 12 -7 7 -42 29 -77 48 -138 75 -531 304 -547 318 -10 8 -18 12 -18
8 0 -4 -12 1 -27 12 -16 10 -91 55 -168 100 -77 44 -156 89 -175 101 -19 11
-46 26 -60 33 -14 6 -32 17 -40 24 -62 50 -223 109 -325 120 -27 3 -55 7 -62
9 -6 2 -13 2 -15 0z"/>
</g>
</svg>
